# xmcd
#
# Track frame offsets:
#	150
#	9901
#	22466
#	32318
#	42766
#	53715
#	64637
#	75614
#	87658
#	97896
#	109338
#	121281
#	134030
#	144719
#	158752
#	169771
#	185010
#	196031
#	207994
#	218730
#	231173
#	243149
#	254035
#	271331
#	287116
#	305693
#	318949
#	328153
#	342265
#
# Disc length: 4719 seconds
#
# Revision: 3
# Processed by: cddbd v1.5.2PL0 Copyright (c) Steve Scherf et al.
# Submitted via: EZCDAudioConverter 7.0.5.1
#
DISCID=a9126d1d
DTITLE=Wanda Jackson - Tears Will Be The Chaser for Your Wine [CD5]
DYEAR=1997
DGENRE=Country
TTITLE0=Who Shot John
TTITLE1=A Woman Lives For Love
TTITLE2=Tell It To Your Lonely Walls
TTITLE3=Let Trouble Be You
TTITLE4=The Man Who Could Have Been
TTITLE5=Stop The World
TTITLE6=Walk Through This World With Me
TTITLE7=Stand By Your Man
TTITLE8=It's Such A Pretty World Today
TTITLE9=One Minute Past Eternity
TTITLE10=If It's All Over
TTITLE11=Why Don't We Move Like That Anymore
TTITLE12=I'd Fight The World
TTITLE13=You're The Only Word I Know
TTITLE14=Break My Mind
TTITLE15=Love Of The Common People
TTITLE16=Hello Darlin'
TTITLE17=Wonder Could I Live There Anymore
TTITLE18=I'm Gonna Walk Out Of Your Life
TTITLE19=What A Sunday
TTITLE20=I've Gotta Sing
TTITLE21=Fancy Satin Pillows
TTITLE22=Bridge Over Troubled Water
TTITLE23=Everything Is Beautiful
TTITLE24=Oh Happy Day
TTITLE25=One Hundred Children
TTITLE26=People Gotta Be Loving
TTITLE27=Battle Hymn Of The Republic
TTITLE28=He Gives Us All His Love
EXTD=
EXTT0=
EXTT1=
EXTT2=
EXTT3=
EXTT4=
EXTT5=
EXTT6=
EXTT7=
EXTT8=
EXTT9=
EXTT10=
EXTT11=
EXTT12=
EXTT13=
EXTT14=
EXTT15=
EXTT16=
EXTT17=
EXTT18=
EXTT19=
EXTT20=
EXTT21=
EXTT22=
EXTT23=
EXTT24=
EXTT25=
EXTT26=
EXTT27=
EXTT28=
PLAYORDER=
